<?xml version="1.0" encoding="utf-8"?>
<!-- Generator: Adobe Illustrator 22.0.0, SVG Export Plug-In . SVG Version: 6.00 Build 0)  -->
<svg version="1.1" id="Capa_1" xmlns="http://www.w3.org/2000/svg" xmlns:xlink="http://www.w3.org/1999/xlink" x="0px" y="0px"
	 viewBox="0 0 390 37" style="enable-background:new 0 0 390 37;" xml:space="preserve">
<style type="text/css">
	.st0{fill:#808082;}
	.st1{fill:#00ABEB;}
</style>
<g>
	<path class="st0" d="M24.3,3l21,24.1v-23h3.2v31.1l-21-24v22.9h-3.2V3z"/>
	<path class="st0" d="M78.7,2.6l14.8,31.6H90l-3.7-7.9H71.6l-3.4,7.9h-3.5L78.7,2.6z M84.9,23.2L78.7,9.8l-5.8,13.4H84.9z"/>
	<path class="st0" d="M109.6,3l21,24.1v-23h3.2v31.1l-21-24v22.9h-3.2V3z"/>
	<path class="st0" d="M151.2,19.1c0-2.1,0.4-4.2,1.2-6.1c0.8-1.9,2-3.6,3.4-5c1.4-1.4,3.1-2.5,5-3.4c1.9-0.8,3.9-1.2,6.1-1.2
		c2.1,0,4.2,0.4,6.1,1.2c1.9,0.8,3.6,2,5,3.4c1.4,1.4,2.5,3.1,3.4,5c0.8,1.9,1.2,3.9,1.2,6.1c0,2.1-0.4,4.2-1.2,6.1
		c-0.8,1.9-2,3.6-3.4,5c-1.4,1.4-3.1,2.5-5,3.4c-1.9,0.8-3.9,1.2-6.1,1.2c-2.1,0-4.2-0.4-6.1-1.2c-1.9-0.8-3.6-2-5-3.4
		c-1.4-1.4-2.5-3.1-3.4-5C151.6,23.3,151.2,21.2,151.2,19.1z M166.9,6.6c-1.7,0-3.3,0.3-4.8,1c-1.5,0.6-2.8,1.5-3.9,2.7
		c-1.1,1.1-1.9,2.5-2.6,4c-0.6,1.5-0.9,3.2-0.9,4.9c0,1.7,0.3,3.3,0.9,4.9c0.6,1.5,1.5,2.8,2.6,4c1.1,1.1,2.4,2,3.9,2.7
		c1.5,0.7,3.1,1,4.8,1c1.7,0,3.4-0.3,4.9-1c1.5-0.7,2.8-1.6,3.9-2.7c1.1-1.1,2-2.5,2.6-4c0.6-1.5,0.9-3.1,0.9-4.9
		c0-1.7-0.3-3.4-0.9-4.9c-0.6-1.5-1.5-2.8-2.6-4c-1.1-1.1-2.4-2-3.9-2.7C170.3,6.9,168.6,6.6,166.9,6.6z"/>
	<path class="st1" d="M199.3,4.1h11c1.7,0,3.1,0.2,4.4,0.6c1.2,0.4,2.3,1,3.1,1.8c0.8,0.8,1.4,1.6,1.8,2.7c0.4,1,0.6,2.1,0.6,3.3
		c0,0.6-0.1,1.2-0.3,1.7c-0.2,0.5-0.4,1-0.6,1.4c-0.2,0.4-0.5,0.8-0.8,1.1c-0.3,0.3-0.5,0.6-0.7,0.8c1,0.7,1.9,1.7,2.7,3
		c0.8,1.3,1.2,2.8,1.2,4.5c0,1.3-0.2,2.4-0.6,3.5c-0.4,1.1-1.1,2.1-1.9,2.9c-0.9,0.8-1.9,1.5-3.2,2c-1.3,0.5-2.8,0.7-4.6,0.7h-12
		V4.1z M213.3,15.9c0.3-0.3,0.6-0.7,0.9-1.2c0.3-0.5,0.4-1.2,0.4-2.1c0-0.9-0.3-1.7-1-2.4c-0.7-0.7-1.8-1-3.5-1h-5.2v6.7H213.3z
		 M211,29c1.8,0,3.1-0.4,3.9-1.2c0.8-0.8,1.2-1.7,1.2-2.8c0-1.1-0.4-2-1.1-2.8c-0.7-0.8-1.9-1.2-3.4-1.2h-6.7V29H211z"/>
	<path class="st1" d="M244.8,21.1l-11-17.1h6.6l7.3,11.6l7.3-11.6h6.5l-11,17.1v13h-5.6V21.1z"/>
	<path class="st1" d="M282.7,9.2h-8.1V4.1h21.7v5.2h-8.1v24.9h-5.6V9.2z"/>
	<path class="st1" d="M312.2,4.1H331v5.2h-13.1v6.7h11.9V21h-11.9V29H331v5.2h-18.7V4.1z"/>
	<path class="st1" d="M353.2,25.3c0,0.6,0.1,1.1,0.3,1.6c0.2,0.5,0.5,1,0.9,1.4c0.4,0.4,0.8,0.7,1.4,1c0.5,0.2,1.1,0.4,1.8,0.4
		c1.5,0,2.6-0.3,3.4-1c0.8-0.7,1.2-1.6,1.2-2.8c0-0.6-0.2-1.1-0.5-1.6c-0.3-0.4-0.7-0.8-1.2-1.2c-0.5-0.4-1.1-0.7-1.7-1
		c-0.6-0.3-1.3-0.6-2-0.8c-1.1-0.4-2.2-0.9-3.2-1.4c-1-0.5-1.9-1.1-2.7-1.8c-0.8-0.7-1.4-1.5-1.8-2.5c-0.4-1-0.7-2.2-0.7-3.6
		c0-1.2,0.2-2.3,0.7-3.4c0.4-1,1.1-2,1.9-2.7c0.8-0.8,1.8-1.4,2.9-1.8c1.1-0.4,2.3-0.7,3.7-0.7c1.3,0,2.6,0.2,3.7,0.6
		c1.1,0.4,2.1,1,2.9,1.8c0.8,0.7,1.4,1.6,1.8,2.7c0.4,1,0.6,2.1,0.6,3.4h-5.6c0-0.9-0.4-1.7-1-2.3c-0.6-0.6-1.4-0.9-2.4-0.9
		c-1,0-1.8,0.3-2.5,1c-0.7,0.6-1,1.5-1,2.5c0,0.5,0.1,1,0.4,1.4c0.3,0.4,0.6,0.8,1.1,1.1c0.5,0.3,1,0.6,1.6,0.9
		c0.6,0.3,1.3,0.6,1.9,0.9c1.1,0.5,2.2,1,3.3,1.5c1.1,0.5,2,1.1,2.8,1.7c0.8,0.7,1.4,1.5,1.9,2.4c0.5,0.9,0.7,2.1,0.7,3.5
		c0,1.4-0.3,2.7-0.8,3.9c-0.5,1.2-1.2,2.2-2.1,3c-0.9,0.8-2,1.5-3.2,1.9c-1.2,0.4-2.6,0.7-4.1,0.7c-1.4,0-2.8-0.2-4-0.7
		c-1.2-0.4-2.3-1.1-3.2-1.9c-0.9-0.8-1.6-1.8-2.1-3c-0.5-1.2-0.8-2.5-0.8-3.9H353.2z"/>
</g>
</svg>
